<svg xmlns="http://www.w3.org/2000/svg" width="512" height="512" viewBox="0 0 512 512" role="img" aria-labelledby="title desc">
  <title id="title">Pixel corgi peeking</title>
  <desc id="desc">Flat pixel art corgi peeking from the bottom on a black background.</desc>
  <rect width="512" height="512" rx="96" fill="#08090b"/>
  <g shape-rendering="crispEdges">
    <rect x="112" y="240" width="64" height="80" fill="#8b5b2b"/>
    <rect x="336" y="240" width="64" height="80" fill="#8b5b2b"/>
    <rect x="144" y="272" width="224" height="160" fill="#c98235"/>
    <rect x="176" y="240" width="160" height="48" fill="#d59142"/>
    <rect x="128" y="320" width="256" height="64" fill="#d59142"/>
    <rect x="192" y="288" width="128" height="128" fill="#f4ead3"/>
    <rect x="176" y="336" width="48" height="64" fill="#f4ead3"/>
    <rect x="288" y="336" width="48" height="64" fill="#f4ead3"/>
    <rect x="176" y="320" width="32" height="32" fill="#111"/>
    <rect x="304" y="320" width="32" height="32" fill="#111"/>
    <rect x="192" y="304" width="16" height="16" fill="#fff"/>
    <rect x="320" y="304" width="16" height="16" fill="#fff"/>
    <rect x="240" y="368" width="32" height="32" fill="#111"/>
    <rect x="224" y="416" width="64" height="16" fill="#111"/>
    <rect x="128" y="432" width="256" height="48" fill="#b87732"/>
    <rect x="80" y="432" width="80" height="48" fill="#f4ead3"/>
    <rect x="352" y="432" width="80" height="48" fill="#f4ead3"/>
    <rect x="0" y="480" width="512" height="32" fill="#08090b"/>
  </g>
</svg>
