<svg xmlns="http://www.w3.org/2000/svg" width="512" height="512" viewBox="0 0 512 512" role="img" aria-labelledby="title desc">
  <title id="title">Red Thread string phone icon</title>
  <desc id="desc">Minimal paper cup string phone icon with a red thread on a white background.</desc>
  <rect width="512" height="512" rx="96" fill="#fff"/>

  <g>
    <path d="M166 238 C82 252 24 296 28 338 C34 408 174 400 286 418 C384 434 414 474 482 476" fill="none" stroke="#e10f21" stroke-width="24" stroke-linecap="round"/>

    <path d="M168 180 L378 132 C406 174 420 298 378 344 L168 288 C142 256 144 212 168 180 Z" fill="#fbfaf6"/>
    <path d="M168 180 L378 132 C388 148 396 174 402 204 L178 246 C174 220 170 198 168 180 Z" fill="#fff"/>
    <path d="M176 252 L404 210 C410 244 406 280 398 306 L170 288 C172 276 174 264 176 252 Z" fill="#f2f1ec"/>

    <path d="M168 180 L378 132" fill="none" stroke="#bdb9ae" stroke-width="8" stroke-linecap="round"/>
    <path d="M168 288 L378 344" fill="none" stroke="#bdb9ae" stroke-width="8" stroke-linecap="round"/>
    <path d="M178 184 C150 212 148 260 170 288" fill="none" stroke="#c8c4ba" stroke-width="8" stroke-linecap="round"/>
    <path d="M314 148 C286 198 286 286 314 328" fill="none" stroke="#d9d6ce" stroke-width="12" stroke-linecap="round"/>

    <ellipse cx="384" cy="238" rx="48" ry="108" fill="#f2efe6" stroke="#bdb9ae" stroke-width="8"/>
    <ellipse cx="390" cy="238" rx="32" ry="90" fill="#faf8f2" stroke="#d6d2c8" stroke-width="6"/>

  </g>
</svg>
