<svg xmlns="http://www.w3.org/2000/svg" width="512" height="512" viewBox="0 0 512 512" role="img" aria-labelledby="title desc">
  <title id="title">Red Thread corgi icon</title>
  <desc id="desc">Close-up flat pixel art corgi face on a black background with a red thread accent.</desc>
  <rect width="512" height="512" rx="96" fill="#08090b"/>
  <path d="M40 206 C124 132 194 256 278 188 S386 116 472 202" fill="none" stroke="#c93542" stroke-width="24" stroke-linecap="round"/>

  <g>
    <polygon points="116,76 202,206 82,230" fill="#8b5b2b"/>
    <polygon points="396,76 310,206 430,230" fill="#8b5b2b"/>
    <polygon points="128,118 184,204 112,214" fill="#d59142"/>
    <polygon points="384,118 328,204 400,214" fill="#d59142"/>

    <circle cx="256" cy="280" r="174" fill="#c98235"/>
    <circle cx="174" cy="300" r="86" fill="#d59142"/>
    <circle cx="338" cy="300" r="86" fill="#d59142"/>
    <circle cx="256" cy="216" r="82" fill="#d59142"/>

    <ellipse cx="256" cy="318" rx="104" ry="130" fill="#f4ead3"/>
    <ellipse cx="188" cy="326" rx="58" ry="66" fill="#f4ead3"/>
    <ellipse cx="324" cy="326" rx="58" ry="66" fill="#f4ead3"/>

    <circle cx="184" cy="264" r="22" fill="#111"/>
    <circle cx="328" cy="264" r="22" fill="#111"/>
    <circle cx="194" cy="254" r="6" fill="#fff"/>
    <circle cx="338" cy="254" r="6" fill="#fff"/>
    <circle cx="256" cy="334" r="24" fill="#111"/>
    <path d="M218 374 C236 392 276 392 294 374" fill="none" stroke="#111" stroke-width="12" stroke-linecap="round"/>
  </g>
</svg>
