<svg xmlns="http://www.w3.org/2000/svg" width="512" height="512" viewBox="0 0 512 512" role="img" aria-labelledby="title desc">
  <title id="title">Pixel corgi side profile</title>
  <desc id="desc">Flat pixel art side profile of a corgi on a black background.</desc>
  <rect width="512" height="512" rx="96" fill="#08090b"/>
  <g shape-rendering="crispEdges">
    <rect x="96" y="160" width="272" height="128" fill="#c98235"/>
    <rect x="128" y="128" width="96" height="64" fill="#d59142"/>
    <rect x="112" y="96" width="48" height="64" fill="#8b5b2b"/>
    <rect x="192" y="96" width="48" height="64" fill="#8b5b2b"/>
    <rect x="320" y="192" width="64" height="64" fill="#c98235"/>
    <rect x="368" y="208" width="48" height="32" fill="#f4ead3"/>
    <rect x="112" y="192" width="96" height="96" fill="#f4ead3"/>
    <rect x="128" y="160" width="48" height="48" fill="#f4ead3"/>
    <rect x="208" y="192" width="32" height="32" fill="#111"/>
    <rect x="224" y="176" width="16" height="16" fill="#fff"/>
    <rect x="384" y="208" width="16" height="16" fill="#111"/>
    <rect x="256" y="272" width="80" height="32" fill="#a8662e"/>
    <rect x="96" y="288" width="256" height="80" fill="#b87732"/>
    <rect x="128" y="368" width="48" height="64" fill="#f4ead3"/>
    <rect x="272" y="368" width="48" height="64" fill="#f4ead3"/>
    <rect x="96" y="368" width="48" height="32" fill="#8b5b2b"/>
    <rect x="320" y="368" width="48" height="32" fill="#8b5b2b"/>
    <rect x="64" y="224" width="48" height="48" fill="#d59142"/>
    <rect x="48" y="240" width="32" height="32" fill="#f4ead3"/>
    <rect x="0" y="464" width="512" height="48" fill="#08090b"/>
  </g>
</svg>
