<svg xmlns="http://www.w3.org/2000/svg" width="1200" height="630" viewBox="0 0 1200 630" role="img" aria-labelledby="title desc">
  <title id="title">Red Thread</title>
  <desc id="desc">ゲーム仲間募集掲示板 Red Thread の共有画像</desc>
  <rect width="1200" height="630" fill="#fffafa"/>
  <rect x="48" y="48" width="1104" height="534" rx="24" fill="#c93542"/>
  <rect x="86" y="86" width="1028" height="458" rx="18" fill="#ffffff"/>
  <path d="M86 176 C260 108 330 236 512 164 S818 132 1114 214" fill="none" stroke="#ffd7d3" stroke-width="16" stroke-linecap="round"/>
  <rect x="122" y="126" width="72" height="72" rx="14" fill="#c93542"/>
  <rect x="142" y="142" width="32" height="7" rx="2" fill="#ffffff"/>
  <rect x="153" y="150" width="10" height="24" rx="2" fill="#ffffff"/>
  <rect x="142" y="176" width="32" height="7" rx="2" fill="#ffffff"/>
  <text x="220" y="190" fill="#8f1724" font-family="Segoe UI, Arial, sans-serif" font-size="82" font-weight="800">Red Thread</text>
  <text x="122" y="260" fill="#7d6467" font-family="Segoe UI, Arial, sans-serif" font-size="34" font-weight="700">ゲーム仲間募集とフリートーク</text>
  <g fill="#c93542" font-family="Segoe UI, Arial, sans-serif" font-size="28" font-weight="700">
    <rect x="124" y="332" width="256" height="70" rx="10" fill="#c93542"/>
    <text x="158" y="377" fill="#ffffff">募集を投稿</text>
    <rect x="404" y="332" width="256" height="70" rx="10" fill="#fff0ef"/>
    <text x="438" y="377" fill="#8f1724">フリートーク</text>
    <rect x="684" y="332" width="256" height="70" rx="10" fill="#fff0ef"/>
    <text x="718" y="377" fill="#8f1724">リマインダー</text>
  </g>
  <text x="124" y="482" fill="#7d6467" font-family="Segoe UI, Arial, sans-serif" font-size="24">気軽に誘える、見つけやすい、あとで追える。</text>
</svg>
