<svg xmlns="http://www.w3.org/2000/svg" width="1200" height="630" viewBox="0 0 1200 630" role="img" aria-labelledby="title desc">
  <title id="title">1code（ワンコード）</title>
  <desc id="desc">ゲーム仲間募集掲示板 1code（ワンコード） の共有画像</desc>
  <rect width="1200" height="630" fill="#ffffff"/>
  <rect x="48" y="48" width="1104" height="534" rx="24" fill="#111111"/>
  <rect x="86" y="86" width="1028" height="458" rx="18" fill="#ffffff"/>
  <rect x="122" y="126" width="72" height="72" rx="14" fill="#111111"/>
  <rect x="142" y="142" width="32" height="7" rx="2" fill="#ffffff"/>
  <rect x="153" y="150" width="10" height="24" rx="2" fill="#ffffff"/>
  <rect x="142" y="176" width="32" height="7" rx="2" fill="#ffffff"/>
  <text x="220" y="190" fill="#111111" font-family="Segoe UI, Arial, sans-serif" font-size="82" font-weight="800">1code</text>
  <text x="122" y="260" fill="#333333" font-family="Segoe UI, Arial, sans-serif" font-size="34" font-weight="700">ゲーム仲間募集とフリートーク</text>
  <g fill="#111111" font-family="Segoe UI, Arial, sans-serif" font-size="28" font-weight="700">
    <rect x="124" y="332" width="256" height="70" rx="10" fill="#111111"/>
    <text x="158" y="377" fill="#ffffff">募集を投稿</text>
    <rect x="404" y="332" width="256" height="70" rx="10" fill="#eeeeee"/>
    <text x="438" y="377" fill="#111111">フリートーク</text>
    <rect x="684" y="332" width="256" height="70" rx="10" fill="#eeeeee"/>
    <text x="718" y="377" fill="#111111">リマインダー</text>
  </g>
  <text x="124" y="482" fill="#555555" font-family="Segoe UI, Arial, sans-serif" font-size="24">気軽に誘える、見つけやすい、あとで追える。</text>
</svg>
